<?xml version="1.0" encoding="UTF-8" standalone="no"?>
<svg
   height="32"
   viewBox="0 -960 1279.4955 1280"
   width="31.987387"
   fill="#ee275a"
   version="1.1"
   id="svg1"
   sodipodi:docname="featured_icon.svg"
   inkscape:version="1.4 (86a8ad7, 2024-10-11)"
   xmlns:inkscape="http://www.inkscape.org/namespaces/inkscape"
   xmlns:sodipodi="http://sodipodi.sourceforge.net/DTD/sodipodi-0.dtd"
   xmlns="http://www.w3.org/2000/svg"
   xmlns:svg="http://www.w3.org/2000/svg">
  <defs
     id="defs1" />
  <sodipodi:namedview
     id="namedview1"
     pagecolor="#ffffff"
     bordercolor="#999999"
     borderopacity="1"
     inkscape:showpageshadow="0"
     inkscape:pageopacity="0"
     inkscape:pagecheckerboard="0"
     inkscape:deskcolor="#d1d1d1"
     inkscape:zoom="14.863974"
     inkscape:cx="21.494925"
     inkscape:cy="8.1741264"
     inkscape:current-layer="svg1" />
  <path
     d="M 650.7363,-284.60648 797.07156,-373.05087 943.40687,-284.60648 904.81291,-451.84678 1033.4593,-562.80429 864.61092,-577.277 797.07156,-734.86883 729.53221,-577.277 560.68383,-562.80429 689.33022,-451.84678 Z M 681.28982,133.49427 H 1041.4997 Q 1030.2432,175.30435 1002.9058,201.03362 975.56847,226.7629 932.15027,233.19522 L 231.02747,318.42345 Q 177.96084,326.46385 135.34672,293.49821 92.732607,260.53258 86.300287,207.46594 L 1.0720535,-495.26493 Q -5.3602665,-548.33157 26.801327,-590.14164 58.962927,-631.95172 112.02956,-638.38404 L 186.00124,-648.03252 V -519.38613 L 128.11036,-511.34573 214.94667,191.38515 Z M 443.29401,4.847888 Q 390.22737,4.847888 352.4375,-32.941988 314.64762,-70.731864 314.64762,-123.7985 V -831.35361 Q 314.64762,-884.42025 352.4375,-922.21012 390.22737,-960 443.29401,-960 H 1150.8492 Q 1203.9158,-960 1241.7057,-922.21012 1279.4955,-884.42025 1279.4955,-831.35361 V -123.7985 Q 1279.4955,-70.731864 1241.7057,-32.941988 1203.9158,4.847888 1150.8492,4.847888 Z M 443.29401,-123.7985 H 1150.8492 V -831.35361 H 443.29401 Z M 797.07156,-477.57606 Z M 214.94667,191.38515 Z"
     id="path1"
     style="stroke-width:1.60808" />
</svg>
