<?xml version="1.0" encoding="UTF-8" standalone="no"?>
<!-- Created with Inkscape (http://www.inkscape.org/) -->

<svg
   width="16.933336mm"
   height="16.933331mm"
   viewBox="0 0 16.933336 16.93333"
   version="1.1"
   id="svg1"
   inkscape:version="1.4 (86a8ad7, 2024-10-11)"
   sodipodi:docname="kb_logo.svg"
   xmlns:inkscape="http://www.inkscape.org/namespaces/inkscape"
   xmlns:sodipodi="http://sodipodi.sourceforge.net/DTD/sodipodi-0.dtd"
   xmlns="http://www.w3.org/2000/svg"
   xmlns:svg="http://www.w3.org/2000/svg">
  <sodipodi:namedview
     id="namedview1"
     pagecolor="#ffffff"
     bordercolor="#999999"
     borderopacity="1"
     inkscape:showpageshadow="0"
     inkscape:pageopacity="0"
     inkscape:pagecheckerboard="0"
     inkscape:deskcolor="#d1d1d1"
     inkscape:document-units="mm"
     showguides="true"
     inkscape:zoom="1.4142136"
     inkscape:cx="-37.123106"
     inkscape:cy="-32.173358"
     inkscape:current-layer="layer1" />
  <defs
     id="defs1">
    <inkscape:path-effect
       effect="fillet_chamfer"
       id="path-effect4"
       is_visible="true"
       lpeversion="1"
       nodesatellites_param="F,0,0,1,0,0,0,1 @ F,0,0,1,0,0.25588754,0,1 @ F,0,0,1,0,0,0,1 @ F,0,0,1,0,0.25588754,0,1 @ F,0,0,1,0,0,0,1 @ F,0,0,1,0,0.25588754,0,1 | F,0,0,1,0,0,0,1 @ F,0,0,1,0,0.25588754,0,1 @ F,0,0,1,0,0,0,1 @ F,0,0,1,0,0,0,1 @ F,0,0,1,0,0,0,1 @ F,0,0,1,0,0,0,1 @ F,0,0,1,0,0,0,1 @ F,0,0,1,0,0,0,1 @ F,0,0,1,0,0,0,1 @ F,0,0,1,0,0,0,1 @ F,0,0,1,0,0,0,1 @ F,0,0,1,0,0,0,1 @ F,0,0,1,0,0,0,1 @ F,0,0,1,0,0,0,1 @ F,0,0,1,0,0,0,1 @ F,0,0,1,0,0,0,1 @ F,0,0,1,0,0,0,1 @ F,0,0,1,0,0.25588754,0,1 | F,0,0,1,0,0,0,1 @ F,0,0,1,0,0,0,1 @ F,0,0,1,0,0,0,1 @ F,0,0,1,0,0,0,1 | F,0,1,1,0,0.072404542,0,1 @ F,0,0,1,0,0,0,1 @ F,0,0,1,0,0,0,1 @ F,0,0,1,0,0,0,1 @ F,0,0,1,0,0,0,1 @ F,0,0,1,0,0,0,1 @ F,0,0,1,0,0,0,1 @ F,0,1,1,0,0.072404542,0,1 | F,0,1,1,0,0.072404542,0,1 @ F,0,0,1,0,0,0,1 @ F,0,0,1,0,0,0,1 @ F,0,0,1,0,0,0,1 @ F,0,0,1,0,0,0,1 @ F,0,0,1,0,0,0,1 @ F,0,0,1,0,0,0,1 @ F,0,0,1,0,0.072404542,0,1"
       radius="0"
       unit="px"
       method="auto"
       mode="F"
       chamfer_steps="1"
       flexible="false"
       use_knot_distance="true"
       apply_no_radius="true"
       apply_with_radius="true"
       only_selected="false"
       hide_knots="false" />
  </defs>
  <g
     inkscape:label="Layer 1"
     inkscape:groupmode="layer"
     id="layer1">
    <path
       id="path3"
       style="fill:#f2f2f2;fill-opacity:1;fill-rule:evenodd;stroke-width:1.34709"
       d="M 8.4670152,1.2216186e-6 C 3.7992532,1.2216186e-6 -1.7783814e-6,3.7985612 -1.7783814e-6,8.4663212 -1.7783814e-6,13.134081 3.7992532,16.933331 8.4670152,16.933331 13.134777,16.933331 16.933334,13.134081 16.933334,8.4663212 16.933334,3.7985612 13.134777,1.2216186e-6 8.4670152,1.2216186e-6 Z M 8.4670152,1.4333312 C 12.359432,1.4333312 15.499309,4.5739012 15.499309,8.4663212 15.499309,12.358731 12.359432,15.499311 8.4670152,15.499311 5.9205912,15.499311 3.6962102,14.154941 2.4622072,12.135611 H 4.1837332 A 0.63244441,0.63244441 0 0 0 4.7155762,11.846031 L 6.8951562,8.4663212 4.7155762,5.0859212 A 0.63244566,0.63244566 0 0 0 4.1837332,4.7963212 H 2.4629022 C 3.6970082,2.7774612 5.9209362,1.4333312 8.4670152,1.4333312 Z M 6.8951562,8.4663212 V 11.791031 A 0.34470398,0.34470398 0 0 0 7.2397392,12.135611 H 10.605523 C 11.189358,12.135611 11.681154,12.055381 12.080619,11.894051 12.487768,11.732741 12.79488,11.505861 13.002294,11.213951 13.217391,10.922021 13.324602,10.580331 13.324602,10.188541 13.324602,9.7045812 13.213239,9.3047712 12.99046,8.9898012 12.833485,8.7599512 12.620945,8.5857312 12.353502,8.4663212 12.353081,8.4665012 12.352533,8.4668512 12.35211,8.4670112 V 8.4663212 C 12.35211,8.4663212 12.352118,8.4650612 12.35211,8.4649212 12.352533,8.4650812 12.353081,8.4654512 12.353502,8.4656212 12.620945,8.3462212 12.833485,8.1726812 12.99046,7.9428312 13.213239,7.6278712 13.324602,7.2280512 13.324602,6.7440912 13.324602,6.3523112 13.217391,6.0099312 13.002294,5.7180012 12.79488,5.4260912 12.487768,5.1991912 12.080619,5.0378812 11.681154,4.8765512 11.189358,4.7963212 10.605523,4.7963212 H 7.2397392 A 0.34470398,0.34470398 0 0 0 6.8951562,5.1409112 Z M 12.353502,8.4656212 C 12.353078,8.4658012 12.352535,8.4661312 12.35211,8.4663212 12.352535,8.4665112 12.353078,8.4661512 12.353502,8.4663212 12.354109,8.4660912 12.354289,8.4665512 12.354894,8.4663212 12.354289,8.4660912 12.354109,8.4658512 12.353502,8.4656212 Z M 2.3494342,4.9912412 4.4037092,8.1760412 A 0.53454343,0.53454343 0 0 1 4.4037092,8.7559112 L 2.3494342,11.941391 C 1.7676022,10.916951 1.4340242,9.7318312 1.4340242,8.4663212 1.4340242,7.2008012 1.7676022,6.0156912 2.3494342,4.9912412 Z M 9.2974962,6.7552312 H 10.155823 C 10.432377,6.7552312 10.628126,6.8126512 10.743356,6.9278812 10.866269,7.0354312 10.927829,7.1779012 10.927829,7.3546012 10.927829,7.4852012 10.90155,7.5965512 10.847776,7.6887412 10.801684,7.7732412 10.720755,7.8389712 10.605523,7.8850512 10.497975,7.9311512 10.356179,7.9539712 10.179492,7.9539712 H 9.2974962 A 0.09753555,0.09753555 0 0 1 9.1993422,7.8558112 V 6.8533812 A 0.09753555,0.09753555 0 0 1 9.2974962,6.7552312 Z M 9.2974962,8.9786612 H 10.179492 C 10.356179,8.9786612 10.497975,9.0008012 10.605523,9.0468912 10.720755,9.0929812 10.801684,9.1587012 10.847776,9.2432012 10.90155,9.3354012 10.927829,9.4467212 10.927829,9.5773412 10.927829,9.7540212 10.866269,9.8965212 10.743356,10.004071 10.628126,10.119301 10.432377,10.176711 10.155823,10.176711 H 9.2974962 A 0.09753555,0.09753555 0 0 1 9.1993422,10.079251 V 9.0761212 A 0.09753555,0.09753555 0 0 1 9.2974962,8.9786612 Z" />
  </g>
</svg>
